<?xml version="1.0" encoding="UTF-8" standalone="no"?>
<svg
   xmlns:dc="http://purl.org/dc/elements/1.1/"
   xmlns:cc="http://creativecommons.org/ns#"
   xmlns:rdf="http://www.w3.org/1999/02/22-rdf-syntax-ns#"
   xmlns:svg="http://www.w3.org/2000/svg"
   xmlns="http://www.w3.org/2000/svg"
   xmlns:sodipodi="http://sodipodi.sourceforge.net/DTD/sodipodi-0.dtd"
   xmlns:inkscape="http://www.inkscape.org/namespaces/inkscape"
   viewBox="0 0 134 26"
   version="1.1"
   id="svg938"
   sodipodi:docname="edit.svg"
   inkscape:version="1.0.1 (3bc2e813f5, 2020-09-07)">
  <metadata
     id="metadata944">
    <rdf:RDF>
      <cc:Work
         rdf:about="">
        <dc:format>image/svg+xml</dc:format>
        <dc:type
           rdf:resource="http://purl.org/dc/dcmitype/StillImage" />
        <dc:title />
      </cc:Work>
    </rdf:RDF>
  </metadata>
  <defs
     id="defs942">
    <filter
       inkscape:collect="always"
       style="color-interpolation-filters:sRGB"
       id="filter1669"
       x="-0.093989693"
       width="1.1879793"
       y="-0.056805015"
       height="1.11361">
      <feGaussianBlur
         inkscape:collect="always"
         stdDeviation="0.015756939"
         id="feGaussianBlur1671" />
    </filter>
    <filter
       inkscape:collect="always"
       style="color-interpolation-filters:sRGB"
       id="filter1661"
       x="-0.10089222"
       width="1.2017844"
       y="-0.10969616"
       height="1.2193923">
      <feGaussianBlur
         inkscape:collect="always"
         stdDeviation="0.015756939"
         id="feGaussianBlur1663" />
    </filter>
    <filter
       inkscape:collect="always"
       style="color-interpolation-filters:sRGB"
       id="filter1673"
       x="-0.055762917"
       width="1.1115258"
       y="-0.074075691"
       height="1.1481514">
      <feGaussianBlur
         inkscape:collect="always"
         stdDeviation="0.015756939"
         id="feGaussianBlur1675" />
    </filter>
    <filter
       inkscape:collect="always"
       style="color-interpolation-filters:sRGB"
       id="filter1665"
       x="-0.078815214"
       width="1.1576304"
       y="-0.090078078"
       height="1.1801562">
      <feGaussianBlur
         inkscape:collect="always"
         stdDeviation="0.015756939"
         id="feGaussianBlur1667" />
    </filter>
  </defs>
  <sodipodi:namedview
     pagecolor="#ffffff"
     bordercolor="#666666"
     borderopacity="1"
     objecttolerance="10"
     gridtolerance="10"
     guidetolerance="10"
     inkscape:pageopacity="0"
     inkscape:pageshadow="2"
     inkscape:window-width="1350"
     inkscape:window-height="645"
     id="namedview940"
     showgrid="false"
     inkscape:zoom="6.0373134"
     inkscape:cx="67"
     inkscape:cy="13"
     inkscape:window-x="548"
     inkscape:window-y="47"
     inkscape:window-maximized="0"
     inkscape:current-layer="svg938"
     inkscape:document-rotation="0" />
  <path
     d="M21.8.2H3.5C1.6.2.1 1.7.1 3.6v15.5c0 1.9 1.5 3.4 3.4 3.4h5.7l3.4 3.4 3.4-3.4h5.7c1.9 0 3.4-1.5 3.4-3.4V3.6c.2-1.9-1.4-3.4-3.3-3.4z"
     fill="#1da1f2"
     id="path934" />
  <path
     d="m 32.521653,1.109337 v 2.5 h 4 v 11 h 3 v -11 h 4.1 v -2.5 z m 51.7,0 v 13.5 h 5.8 c 4.1,0 6.1,-2.9 6.1,-6.8000002 0,-4.4999998 -2.6,-6.6999998 -6.1,-6.6999998 z m 33.599997,0 v 13.6 h 2.7 v -3.4 l 1,-1 2.7,4.4 h 3.3 l -4.1,-6.2000002 3.7,-3.5999998 h -3.2 l -3.4,3.4999998 V 1.109337 Z m -39.399997,0.8 v 3 h -1.7 v 1.7999998 h 1.6 v 5.8000002 c 0,1.9 1.4,2.3 3.1,2.3 0.6,0 1.1,0 1.6,-0.1 v -2.1 c -0.2,0.1 -0.5,0.1 -0.8,0.1 -0.9,0 -1.1,-0.2 -1.1,-1.1 V 6.7093368 h 2 V 4.909337 h -2 v -3 z m 8.9,1.7 h 2.1 c 2.9,0 3.9,1.8 3.9,4.4999998 0,3.0000002 -1.7,4.1000002 -3.4,4.1000002 h -2.6 z m -25.8,0.9 c -3,0 -5,2.2999998 -5,5.1999998 0,3.1000002 1.9,5.2000002 5,5.2000002 2.2,0 3.8,-1 4.6,-3.3 h -2.4 c -0.1,0.6 -1,1.3 -2.1,1.3 -1.5,0 -2.3,-0.8 -2.4,-2.5 v -0.1 h 7.1 c 0.2,-3.0000002 -1.5,-5.8 -4.8,-5.8 z m 10.5,0 c -3,0 -5,2.2999998 -5,5.1999998 0,3.1000002 1.9,5.2000002 5,5.2000002 2.2,0 3.8,-1 4.6,-3.3 h -2.4 c -0.1,0.6 -1,1.3 -2.1,1.3 -1.5,0 -2.3,-0.8 -2.4,-2.5 v -0.1 h 7.1 c 0.2,-3.0000002 -1.5,-5.8 -4.8,-5.8 z m 29.899997,0 c -2.999997,0 -4.999997,2.2999998 -4.999997,5.1999998 0,3.1000002 1.9,5.2000002 4.999997,5.2000002 2.2,0 3.8,-1 4.6,-3.3 h -2.4 c -0.1,0.6 -1,1.3 -2.1,1.3 -1.5,0 -2.299997,-0.8 -2.399997,-2.5 v -0.1 h 7.099997 c 0.2,-3.0000002 -1.5,-5.8 -4.8,-5.8 z m 10.3,0.1 c -3.2,0 -5,2.1999998 -5,5.2999998 0,2.9000002 1.9,5.0000002 4.9,5.0000002 2.6,0 4.3,-1.4 4.7,-4 h -2.6 c -0.1,1.2 -0.8,2 -2.1,2 -1.6,0 -2.2,-1.7 -2.2,-3.1000002 0,-1.5 0.6,-3.2 2.3,-3.2 1.2,0 1.8,0.6 2,1.7 h 2.6 c -0.1,-2.4999998 -2.3,-3.6999998 -4.6,-3.6999998 z m -70.599997,0.3 3.1,9.8 h 2.8 l 1.7,-6.6000002 1.7,6.6000002 h 2.8 l 3,-9.8 h -2.8 l -1.8,6.6 -1.7,-6.6 h -2.6 l -1.6,6.7 -1.8,-6.7 z m 19.9,1.6999998 c 1.3,0 1.9,0.7 2.1,2.1 h -4.3 c 0,-0.8 0.5,-2.1 2.2,-2.1 z m 10.5,0 c 1.3,0 1.9,0.7 2.1,2.1 h -4.3 c 0,-0.8 0.5,-2.1 2.2,-2.1 z m 29.799997,0 c 1.3,0 1.9,0.7 2.1,2.1 h -4.299997 c 0,-0.8 0.499997,-2.1 2.199997,-2.1 z"
     fill="#ffffff"
     id="path936-8"
     sodipodi:nodetypes="cccccccccccssscccccccccccccccccccssccsscccccccsssccsssccscccssssccscccssssccscccssssccsssccsccccccccccccccsccssccssccs" />
  <path
     d="m 10.296394,12.863066 c 3.923494,-0.25239 5.844696,-3.7543052 5.616009,-6.7281188 L 15.892523,5.8763557 C 16.303605,5.5250732 16.64744,5.1131459 16.86175,4.6445854 16.502998,4.8625545 16.076997,5.0199087 15.641053,5.0479517 16.057113,4.7613135 16.39598,4.2847419 16.480762,3.759544 16.126981,4.0421763 15.643674,4.2681683 15.150426,4.3648652 14.74693,4.0010139 14.166547,3.7784779 13.543768,3.8185398 c -1.183276,0.076117 -2.042869,1.105931 -1.948408,2.3342438 0.01489,0.193954 0.02485,0.3232403 0.102042,0.5131793 C 9.8814086,6.652848 8.2598405,5.9125753 7.0967188,4.6230708 6.934745,4.95833 6.8400179,5.3542287 6.8698459,5.7421171 6.9295009,6.5178943 7.3528851,7.1403394 7.9481839,7.5568199 7.6367944,7.5768509 7.2531858,7.4715839 6.9891611,7.2936741 7.0736771,8.3926919 7.8906085,9.2496918 8.901966,9.3795371 8.7201072,9.4562081 8.5332686,9.4682271 8.3464389,9.4802426 8.2218796,9.4882526 8.0973291,9.4962676 7.9677986,9.4396276 8.2865106,10.328672 9.145834,10.923073 10.079999,10.86298 9.3774106,11.492888 8.4730743,11.940869 7.476632,12.004968 l -0.4982202,0.03205 c 0.9216027,0.590394 2.0724295,0.906172 3.3179822,0.826048"
     fill="#ffffff"
     id="path936"
     style="stroke-width:0.636084"
     sodipodi:nodetypes="cscccccssccscccsccscc" />
  <g
     id="g947"
     transform="matrix(4.1324075,0,0,3.7795276,-4.0131125,-0.6257996)">
    <path
       style="fill:none;stroke:#00c9ff;stroke-width:0.065;stroke-linecap:butt;stroke-linejoin:miter;stroke-miterlimit:4;stroke-dasharray:none;stroke-opacity:1"
       d="m 4.0536442,2.5457045 c 0.00989,0.078918 0.031207,0.1884237 0,0.2664421 -0.00406,0.010141 -0.017111,0.014081 -0.02317,0.023169 -0.021995,0.032994 -0.037533,0.070277 -0.057922,0.10426 -0.00843,0.014048 -0.024924,0.021647 -0.034753,0.034753 -0.02013,0.026839 -0.025278,0.092676 -0.069507,0.092676"
       id="path84" />
    <path
       style="fill:none;stroke:#00c9ff;stroke-width:0.065;stroke-linecap:butt;stroke-linejoin:miter;stroke-miterlimit:4;stroke-dasharray:none;stroke-opacity:1"
       d="m 4.2737484,2.5109512 c -0.015102,0.068479 0.021318,0.3744022 0,0.4170397 -0.00675,0.013494 -0.016423,0.021259 -0.02317,0.034753 -0.00457,0.00915 0.00326,0.024985 0,0.034753 -0.00741,0.02223 -0.02512,0.038655 -0.034753,0.057922 -0.0073,0.014605 -0.00382,0.042384 -0.011584,0.057922 -0.00833,0.016656 -0.02317,0.034477 -0.02317,0.046338"
       id="path917" />
    <path
       style="fill:none;stroke:#00c9ff;stroke-width:0.065;stroke-linecap:butt;stroke-linejoin:miter;stroke-miterlimit:4;stroke-dasharray:none;stroke-opacity:1"
       d="m 3.83354,2.63838 c 0.070885,0.033444 0.1401579,0.058495 0.2085197,0.092675 0.023966,0.011983 0.065895,0.014242 0.092676,0.023169 0.013758,0.00459 0.048667,-0.00926 0.057922,0 0.00273,0.00273 -0.00273,0.00885 0,0.011585 0.00188,0.00189 0.2137587,0.023169 0.2432733,0.023169"
       id="path919" />
    <path
       style="fill:none;stroke:#00c9ff;stroke-width:0.065;stroke-linecap:butt;stroke-linejoin:miter;stroke-miterlimit:4;stroke-dasharray:none;stroke-opacity:1"
       d="m 3.7408643,2.8121466 c 0.083927,0.023706 0.1368973,0.045632 0.20852,0.069507 0.015661,0.00522 0.05794,1.75e-5 0.069507,0.011585 0.00273,0.00273 -0.00273,0.00885 0,0.011585 0.00786,0.00786 0.035736,-0.0053 0.046338,0 0.019921,0.00996 0.038002,0.013209 0.057922,0.023169 0.049427,0.024714 0.1359242,-0.024713 0.185351,0 0.026644,0.013322 0.03508,0.023169 0.069507,0.023169"
       id="path921" />
  </g>
  <g
     id="g1693"
     transform="matrix(4.1324075,0,0,3.7795276,-1.774069,0.4741886)">
    <path
       style="fill:#ed657f;fill-opacity:1;stroke:#ed657f;stroke-width:0;stroke-miterlimit:4;stroke-dasharray:none;stroke-opacity:1;filter:url(#filter1669)"
       id="path949"
       d="m 3.6539718,1.2350023 c -0.122809,0.037576 -0.1577846,0.08711 -0.2302315,0.1610414 -0.02877,0.028442 -0.056579,0.057764 -0.082772,0.08858 -0.018288,0.028567 -0.040148,0.054658 -0.058494,0.083151 -0.016632,0.026973 -0.019317,0.058336 -0.024318,0.088868 -0.00576,0.031679 -0.00851,0.063251 -0.00493,0.095258 0.00917,0.032213 0.028879,0.056898 0.052831,0.079326 0.023688,0.020487 0.053321,0.030691 0.080418,0.045286 0.013409,0.00777 0.026806,0.015571 0.039667,0.024217 0,0 0.1437383,-0.091626 0.1437383,-0.091626 v 0 c -0.013076,-0.00938 -0.027143,-0.017266 -0.041114,-0.025249 -0.025747,-0.014953 -0.055213,-0.02262 -0.078837,-0.04154 -0.021183,-0.019449 -0.040191,-0.039908 -0.04623,-0.069147 -0.00319,-0.030317 7.144e-4,-0.060401 0.00582,-0.090362 0.00543,-0.028931 0.010552,-0.058112 0.027861,-0.082726 0.01927,-0.027357 0.038229,-0.05505 0.059062,-0.081212 0.025993,-0.029775 0.052693,-0.058921 0.080945,-0.086584 0.016663,-0.016766 0.032903,-0.034242 0.050222,-0.050338 0.00475,-0.00441 0.020476,-0.015723 0.014743,-0.012694 -0.073764,0.038963 -0.1819047,0.1048095 -0.1250582,0.070263 0,0 0.1366779,-0.1045118 0.1366774,-0.1045124 z" />
    <path
       style="fill:#ed657f;fill-opacity:1;stroke:#ed657f;stroke-width:0;stroke-miterlimit:4;stroke-dasharray:none;stroke-opacity:1;filter:url(#filter1661)"
       id="path951"
       d="m 3.7884447,1.3349664 c 0.032618,0.023936 0.063917,0.049265 0.094183,0.076094 0.029666,0.025083 0.051933,0.056981 0.078383,0.085098 0.013499,0.017395 0.030964,0.031619 0.043298,0.049883 0.00641,0.013724 0.0073,0.028942 0.00858,0.043792 0,0 0.1503783,-0.07836 0.1503783,-0.07836 v 0 C 4.161547,1.4936794 4.160007,1.4757544 4.151789,1.4595114 4.138785,1.4402314 4.120253,1.4258164 4.105362,1.4080344 4.077689,1.3802134 4.053818,1.3488814 4.02408,1.3230564 3.994173,1.2973504 3.964493,1.2713724 3.935106,1.2450934 c 0,0 -0.1466604,0.089873 -0.1466613,0.089873 z" />
    <path
       style="fill:#ed657f;fill-opacity:1;stroke:#ed657f;stroke-width:0;stroke-miterlimit:4;stroke-dasharray:none;stroke-opacity:1;filter:url(#filter1673)"
       id="path953"
       d="m 3.9176597,1.6876996 c -0.00578,0.028199 -0.017494,0.055054 -0.026085,0.082579 -0.014166,0.040049 -0.021103,0.081762 -0.035518,0.1218344 -0.010893,0.037145 -0.030046,0.069564 -0.052495,0.1005894 -0.019275,0.027014 -0.035002,0.050518 -0.063636,0.068223 -0.045948,0.028728 -0.1141325,0.071189 0.1183672,-0.06878 0.00433,-0.00261 -0.00915,0.00432 -0.013861,0.00616 -0.014348,0.00561 -0.02954,0.00923 -0.044385,0.013228 -0.029541,0.00807 -0.059992,0.010584 -0.090457,0.011809 -0.02721,7.726e-4 -0.054433,5.635e-4 -0.08165,4.445e-4 -0.022217,0.00141 -0.04164,-0.00284 -0.0582,-0.018008 -0.011467,-0.013366 -0.018664,-0.029184 -0.027058,-0.044419 0,0 -0.1480204,0.085273 -0.1480204,0.085273 v 0 c 0.00952,0.016394 0.017772,0.033404 0.029988,0.04814 0.01774,0.018702 0.039051,0.030616 0.065667,0.028957 0.02765,-10e-7 0.055304,-7.1e-6 0.082949,-6.377e-4 0.031038,-8.467e-4 0.06224,-0.00125 0.092564,-0.00882 0.086289,-0.020869 0.1582412,-0.054756 0.2315535,-0.1156057 0.024821,-0.020581 0.04201,-0.047093 0.060697,-0.07312 0.02187,-0.032066 0.03804,-0.067098 0.049312,-0.1042918 0.013483,-0.040497 0.02109,-0.082589 0.036389,-0.1225048 0.00991,-0.028384 0.021312,-0.056306 0.029049,-0.08538 0,0 -0.155171,0.074333 -0.155171,0.074333 z" />
    <path
       style="fill:#ed657f;fill-opacity:1;stroke:#ed657f;stroke-width:0;stroke-miterlimit:4;stroke-dasharray:none;stroke-opacity:1;filter:url(#filter1665)"
       id="path955"
       d="m 3.9620394,1.5377135 c -0.016608,-0.019068 -0.035759,-0.035678 -0.052966,-0.054148 -0.019164,-0.023368 -0.043592,-0.035854 -0.072229,-0.043596 -0.029519,-0.00554 -0.059702,-0.00747 -0.089705,-0.00687 -0.015936,0.00159 -0.032167,0.00506 -0.046166,0.013228 -0.1579025,0.092133 -0.1175451,0.04575 -0.1645134,0.1025309 -0.022267,0.020964 -0.036135,0.048391 -0.046249,0.076836 -0.00981,0.029292 -0.00999,0.057753 -0.00374,0.087606 0.0067,0.03463 0.018275,0.069059 0.039638,0.097379 0.022233,0.022984 0.050635,0.036006 0.081635,0.041968 0.085,0.00354 0.1776717,-0.049169 0.1730573,-0.1306723 -0.00431,-0.018508 -0.013753,-0.03505 -0.024228,-0.050687 0,0 -0.1471102,0.086483 -0.1471102,0.086483 v 0 c 0.00885,0.01248 0.016677,0.026312 0.019365,0.041546 -7.673e-4,0.00885 -0.00161,0.018378 -0.00872,0.024843 -0.0018,0.00164 -0.00845,0.0049 -0.00631,0.00372 0.146167,-0.080722 0.189397,-0.100497 0.1324999,-0.07415 -0.027845,0.00104 -0.05441,-0.011181 -0.074801,-0.029774 -0.020741,-0.025083 -0.030908,-0.058004 -0.036156,-0.089718 -0.00353,-0.027201 -0.00138,-0.0539 0.00849,-0.079755 0.011546,-0.027016 0.027591,-0.050899 0.049566,-0.070668 0.049561,-0.040739 0.014743,-0.011203 -0.1252955,0.068932 -0.015915,0.00911 0.051818,-0.030814 0.042464,-0.018187 0.028481,-0.00565 0.058393,-7.594e-4 0.087037,0.00176 0.026589,0.0052 0.048514,0.013983 0.066367,0.035349 0.016555,0.018162 0.035551,0.033971 0.050422,0.053666 0,0 0.1476507,-0.087623 0.1476507,-0.087623 z" />
  </g>
  <path
     d="m 18.275912,15.716818 c 2.299677,-0.154245 3.425748,-2.2944 3.291707,-4.111811 l -0.01161,-0.158034 c 0.240954,-0.214684 0.442481,-0.466429 0.568095,-0.752784 -0.210264,0.133209 -0.459967,0.229375 -0.715486,0.246512 0.243859,-0.175175 0.44248,-0.466426 0.492175,-0.787395 -0.207354,0.172728 -0.490642,0.31084 -0.77975,0.369935 -0.236498,-0.222364 -0.576679,-0.358364 -0.941709,-0.33388 -0.693555,0.04652 -1.197386,0.675877 -1.142022,1.426546 0.0095,0.118533 0.01454,0.197544 0.05981,0.313621 -1.064406,-0.008 -2.014858,-0.460422 -2.696597,-1.248488 -0.09493,0.204889 -0.150464,0.446839 -0.132978,0.683893 0.03497,0.474107 0.283124,0.854507 0.632045,1.109034 -0.182514,0.01225 -0.40736,-0.05209 -0.56211,-0.160819 0.04951,0.671652 0.528364,1.195398 1.121151,1.274751 -0.106604,0.04686 -0.216103,0.0542 -0.325614,0.06155 -0.07304,0.0049 -0.14601,0.0098 -0.221932,-0.02483 0.186808,0.543341 0.690484,0.906602 1.238027,0.869877 -0.411808,0.384961 -0.941867,0.658739 -1.525913,0.697913 l -0.29202,0.01958 c 0.540155,0.360812 1.214689,0.553796 1.944743,0.50483"
     fill="#ffffff"
     id="path936-5"
     style="stroke-width:0.380699"
     sodipodi:nodetypes="cscccccssccscccsccscc" />
  <path
     d="m 6.0525576,19.755269 c 1.7142161,-0.115003 2.55361,-1.710683 2.4536939,-3.065729 l -0.00869,-0.117827 c 0.1796142,-0.160067 0.3298357,-0.347765 0.4234693,-0.561269 -0.156734,0.09932 -0.3428659,0.17102 -0.5333355,0.183798 C 8.569476,16.063633 8.7175318,15.84648 8.7545749,15.607168 8.6000106,15.735951 8.3888444,15.838928 8.1733364,15.88299 7.997048,15.717197 7.7434702,15.615796 7.4713721,15.634051 c -0.516986,0.0347 -0.8925514,0.503929 -0.8512818,1.063621 0.00657,0.08838 0.01087,0.147288 0.044592,0.233831 -0.7934096,-0.006 -1.5018913,-0.343286 -2.0100713,-0.930861 -0.070772,0.152765 -0.1121576,0.333158 -0.099123,0.509904 0.02607,0.353492 0.2110462,0.637113 0.4711371,0.826886 -0.1360513,0.0091 -0.3036528,-0.03884 -0.4190064,-0.119906 0.03694,0.500778 0.3938507,0.891278 0.8357238,0.950443 -0.079451,0.03492 -0.1610897,0.04042 -0.2427167,0.04589 -0.054424,0.0037 -0.1088396,0.0073 -0.1654326,-0.01852 0.1392497,0.405109 0.514696,0.675953 0.9228432,0.648572 -0.3069676,0.287024 -0.7020829,0.49115 -1.137439,0.520357 l -0.2176793,0.01459 c 0.4026412,0.269016 0.9054488,0.412903 1.4496444,0.376393"
     fill="#ffffff"
     id="path936-5-0"
     style="fill:#4d4d4d;stroke-width:0.283813"
     sodipodi:nodetypes="cscccccssccscccsccscc" />
  <g
     aria-label="Extended with TwiXKit"
     id="text906"
     style="font-size:2.31586px;line-height:1.25;font-family:sans-serif;fill:#b3b3b3;stroke-width:0.217111"
     transform="matrix(3.7795276,0,0,3.7795276,7.1494024,0.504755)">
    <path
       d="M 7.7714078,5.9447517 H 6.6621018 V 4.2610039 h 1.109306 V 4.4600231 H 6.8859984 V 4.9213859 H 7.7714078 V 5.1204051 H 6.8859984 v 0.6253274 h 0.8854094 z"
       style="fill:#b3b3b3;stroke-width:0.217111"
       id="path875" />
    <path
       d="M 9.2029893,5.9447517 H 8.9349918 L 8.5765311,5.4596424 8.2158087,5.9447517 H 7.9681655 L 8.4611904,5.3149011 7.9726887,4.6816582 h 0.2679974 l 0.3561992,0.4771938 0.35733,-0.4771938 h 0.248774 L 8.706572,5.3035932 Z"
       style="fill:#b3b3b3;stroke-width:0.217111"
       id="path877" />
    <path
       d="m 10.135892,5.9334438 q -0.05993,0.015831 -0.131172,0.026008 -0.070109,0.010177 -0.1255176,0.010177 -0.1933653,0 -0.2940057,-0.1040327 Q 9.4845563,5.7615636 9.4845563,5.532013 V 4.8603231 H 9.3409459 V 4.6816582 H 9.4845563 V 4.3186742 H 9.697145 v 0.362984 h 0.438747 V 4.8603231 H 9.697145 v 0.5755727 q 0,0.09951 0.00452,0.1560491 0.00452,0.055409 0.031662,0.1040328 0.024877,0.045232 0.067847,0.066717 0.044101,0.020354 0.1334334,0.020354 0.052016,0 0.1085556,-0.0147 0.05654,-0.015831 0.08142,-0.026008 h 0.01131 z"
       style="fill:#b3b3b3;stroke-width:0.217111"
       id="path879" />
    <path
       d="M 11.449871,5.3352554 H 10.51923 q 0,0.1164714 0.03505,0.2035424 0.03505,0.08594 0.09612,0.1413488 0.0588,0.054278 0.139087,0.081417 0.08142,0.027139 0.178665,0.027139 0.12891,0 0.258951,-0.050886 0.131172,-0.052016 0.186581,-0.1017712 h 0.01131 v 0.2318121 q -0.107425,0.045232 -0.219374,0.075763 -0.111948,0.030531 -0.235204,0.030531 -0.31436,0 -0.490764,-0.1696186 -0.176403,-0.1707495 -0.176403,-0.4839786 0,-0.3098368 0.168488,-0.4918941 0.169619,-0.1820574 0.445532,-0.1820574 0.255558,0 0.393515,0.1492645 0.139087,0.1492644 0.139087,0.4240466 z M 11.242936,5.1724215 q -0.0011,-0.1673571 -0.08481,-0.2589512 -0.08255,-0.091594 -0.252166,-0.091594 -0.17075,0 -0.272521,0.1006404 -0.10064,0.1006404 -0.11421,0.2499049 z"
       style="fill:#b3b3b3;stroke-width:0.217111"
       id="path881" />
    <path
       d="M 12.828305,5.9447517 H 12.615717 V 5.2255686 q 0,-0.087071 -0.01018,-0.1628339 -0.01018,-0.076894 -0.03732,-0.1198638 -0.02827,-0.047493 -0.08142,-0.070109 -0.05315,-0.023747 -0.137956,-0.023747 -0.08707,0 -0.182057,0.04297 -0.09499,0.04297 -0.182058,0.1096867 v 0.9430801 h -0.21258 V 4.6816582 h 0.212589 v 0.140218 q 0.09951,-0.082548 0.205804,-0.1289101 0.106295,-0.046362 0.218243,-0.046362 0.204673,0 0.312098,0.1232563 0.107425,0.1232562 0.107425,0.3550683 z"
       style="fill:#b3b3b3;stroke-width:0.217111"
       id="path883" />
    <path
       d="M 14.262148,5.9447517 H 14.04956 V 5.8124492 q -0.09159,0.079155 -0.191104,0.1232562 -0.09951,0.044101 -0.215981,0.044101 -0.226158,0 -0.359592,-0.1741419 -0.132302,-0.1741418 -0.132302,-0.4828477 0,-0.1605724 0.04523,-0.2860902 0.04636,-0.1255178 0.124387,-0.2137195 0.07689,-0.08594 0.178665,-0.1311717 0.102902,-0.045232 0.212589,-0.045232 0.09951,0 0.176403,0.021485 0.07689,0.020354 0.161704,0.064455 V 4.1852409 h 0.212588 z M 14.04956,5.6337842 v -0.724837 q -0.08594,-0.038447 -0.153788,-0.053147 -0.06785,-0.0147 -0.148134,-0.0147 -0.178665,0 -0.278174,0.124387 -0.09951,0.124387 -0.09951,0.3528068 0,0.2250274 0.07689,0.3426297 0.07689,0.1164715 0.246512,0.1164715 0.09046,0 0.183189,-0.039578 0.09272,-0.040709 0.173011,-0.1040328 z"
       style="fill:#b3b3b3;stroke-width:0.217111"
       id="path885" />
    <path
       d="M 15.737831,5.3352554 H 14.80719 q 0,0.1164714 0.03505,0.2035424 0.03505,0.08594 0.09612,0.1413488 0.0588,0.054278 0.139087,0.081417 0.08142,0.027139 0.178665,0.027139 0.12891,0 0.258951,-0.050886 0.131172,-0.052016 0.186581,-0.1017712 h 0.01131 v 0.2318121 q -0.107426,0.045232 -0.219374,0.075763 -0.111948,0.030531 -0.235204,0.030531 -0.31436,0 -0.490764,-0.1696186 -0.176403,-0.1707495 -0.176403,-0.4839786 0,-0.3098368 0.168488,-0.4918941 0.169618,-0.1820574 0.445531,-0.1820574 0.255559,0 0.393516,0.1492645 0.139087,0.1492644 0.139087,0.4240466 z M 15.530896,5.1724215 q -0.0011,-0.1673571 -0.08481,-0.2589512 -0.08255,-0.091594 -0.252167,-0.091594 -0.170749,0 -0.27252,0.1006404 -0.100641,0.1006404 -0.11421,0.2499049 z"
       style="fill:#b3b3b3;stroke-width:0.217111"
       id="path887" />
    <path
       d="M 17.084602,5.9447517 H 16.872014 V 5.8124492 q -0.0916,0.079155 -0.191104,0.1232562 -0.09951,0.044101 -0.215981,0.044101 -0.226158,0 -0.359592,-0.1741419 -0.132302,-0.1741418 -0.132302,-0.4828477 0,-0.1605724 0.04523,-0.2860902 0.04636,-0.1255178 0.124387,-0.2137195 0.07689,-0.08594 0.178665,-0.1311717 0.102902,-0.045232 0.212589,-0.045232 0.09951,0 0.176403,0.021485 0.07689,0.020354 0.161704,0.064455 V 4.1852409 h 0.212588 z M 16.872014,5.6337842 v -0.724837 q -0.08594,-0.038447 -0.153788,-0.053147 -0.06785,-0.0147 -0.148134,-0.0147 -0.178665,0 -0.278174,0.124387 -0.09951,0.124387 -0.09951,0.3528068 0,0.2250274 0.07689,0.3426297 0.07689,0.1164715 0.246512,0.1164715 0.09046,0 0.183189,-0.039578 0.09272,-0.040709 0.173011,-0.1040328 z"
       style="fill:#b3b3b3;stroke-width:0.217111"
       id="path889" />
    <path
       d="m 19.905926,4.6816582 -0.32906,1.2630935 h -0.196758 l -0.324537,-0.973611 -0.322275,0.973611 H 18.537669 L 18.205216,4.6816582 h 0.221635 l 0.231813,0.9781342 0.31549,-0.9781342 h 0.175273 l 0.323406,0.9781342 0.219374,-0.9781342 z"
       style="fill:#b3b3b3;stroke-width:0.217111"
       id="path891" />
    <path
       d="M 20.44079,4.4702002 H 20.201062 V 4.249696 H 20.44079 Z M 20.42722,5.9447517 H 20.214632 V 4.6816582 h 0.212588 z"
       style="fill:#b3b3b3;stroke-width:0.217111"
       id="path893" />
    <path
       d="m 21.503734,5.9334438 q -0.05993,0.015831 -0.131172,0.026008 -0.07011,0.010177 -0.125518,0.010177 -0.193365,0 -0.294006,-0.1040327 -0.10064,-0.1040328 -0.10064,-0.3335834 V 4.8603231 h -0.14361 V 4.6816582 h 0.14361 v -0.362984 h 0.212589 v 0.362984 h 0.438747 v 0.1786649 h -0.438747 v 0.5755727 q 0,0.09951 0.0045,0.1560491 0.0045,0.055409 0.03166,0.1040328 0.02488,0.045232 0.06785,0.066717 0.0441,0.020354 0.133433,0.020354 0.05202,0 0.108556,-0.0147 0.05654,-0.015831 0.08142,-0.026008 h 0.01131 z"
       style="fill:#b3b3b3;stroke-width:0.217111"
       id="path895" />
    <path
       d="M 22.816582,5.9447517 H 22.603993 V 5.2255686 q 0,-0.087071 -0.01018,-0.1628339 -0.01018,-0.076894 -0.03732,-0.1198638 -0.02827,-0.047493 -0.08142,-0.070109 -0.05315,-0.023747 -0.137957,-0.023747 -0.08707,0 -0.182057,0.04297 -0.09499,0.04297 -0.182057,0.1096867 V 5.9447517 H 21.760423 V 4.1852409 h 0.212589 v 0.6366353 q 0.09951,-0.082548 0.205804,-0.1289101 0.106294,-0.046362 0.218242,-0.046362 0.204673,0 0.312099,0.1232563 0.107425,0.1232562 0.107425,0.3550683 z"
       style="fill:#b3b3b3;stroke-width:0.217111"
       id="path897" />
    <path
       d="M 25.25796,4.4600231 H 24.65638 V 5.9447517 H 24.432483 V 4.4600231 H 23.830902 V 4.2610039 h 1.427058 z"
       style="fill:#b3b3b3;stroke-width:0.217111"
       id="path899" />
    <path
       d="m 27.055917,4.6816582 -0.32906,1.2630935 h -0.196758 l -0.324537,-0.973611 -0.322275,0.973611 H 25.68766 L 25.355207,4.6816582 h 0.221635 l 0.231813,0.9781342 0.31549,-0.9781342 h 0.175273 l 0.323406,0.9781342 0.219374,-0.9781342 z"
       style="fill:#b3b3b3;stroke-width:0.217111"
       id="path901" />
    <path
       d="M 27.590782,4.4702002 H 27.351054 V 4.249696 h 0.239728 z m -0.01357,1.4745515 H 27.364624 V 4.6816582 h 0.212588 z"
       style="fill:#b3b3b3;stroke-width:0.217111"
       id="path903" />
    <path
       d="M 29.299406,4.2610039 28.71818,5.0932661 29.298276,5.9447517 H 29.039324 L 28.580223,5.2515768 28.109814,5.9447517 H 27.865563 L 28.452444,5.1034432 27.879133,4.2610039 h 0.25782 L 28.5904,4.9451325 29.054025,4.2610039 Z"
       style="fill:#b3b3b3;stroke-width:0.217111"
       id="path905" />
    <path
       d="M 30.954885,5.9447517 H 30.664272 L 29.998236,5.1950373 29.830879,5.3737023 V 5.9447517 H 29.606982 V 4.2610039 h 0.223897 V 5.1396285 L 30.64844,4.2610039 h 0.27139 l -0.751976,0.7915537 z"
       style="fill:#b3b3b3;stroke-width:0.217111"
       id="path907" />
    <path
       d="M 31.417379,4.4702002 H 31.177651 V 4.249696 h 0.239728 z M 31.40381,5.9447517 H 31.191221 V 4.6816582 h 0.212589 z"
       style="fill:#b3b3b3;stroke-width:0.217111"
       id="path909" />
    <path
       d="m 32.480322,5.9334438 q -0.05993,0.015831 -0.131172,0.026008 -0.07011,0.010177 -0.125518,0.010177 -0.193365,0 -0.294005,-0.1040327 Q 31.828986,5.7615636 31.828986,5.532013 V 4.8603231 h -0.14361 V 4.6816582 h 0.14361 v -0.362984 h 0.212589 v 0.362984 h 0.438747 v 0.1786649 h -0.438747 v 0.5755727 q 0,0.09951 0.0045,0.1560491 0.0045,0.055409 0.03166,0.1040328 0.02488,0.045232 0.06785,0.066717 0.0441,0.020354 0.133433,0.020354 0.05202,0 0.108556,-0.0147 0.05654,-0.015831 0.08142,-0.026008 h 0.01131 z"
       style="fill:#b3b3b3;stroke-width:0.217111"
       id="path911" />
  </g>
</svg>
